<svg xmlns="http://www.w3.org/2000/svg" xmlns:xlink="http://www.w3.org/1999/xlink" width="509" zoomAndPan="magnify" viewBox="0 0 381.75 87.749997" height="117" preserveAspectRatio="xMidYMid meet" version="1.0"><defs><g/><clipPath id="a5e81e8b86"><path d="M 28 53 L 79.691406 53 L 79.691406 87.078125 L 28 87.078125 Z M 28 53 " clip-rule="nonzero"/></clipPath><clipPath id="68e2d5d90e"><path d="M 0.417969 7.058594 L 79.691406 7.058594 L 79.691406 81 L 0.417969 81 Z M 0.417969 7.058594 " clip-rule="nonzero"/></clipPath><clipPath id="84a2adb688"><path d="M 98 7 L 103 7 L 103 87.5 L 98 87.5 Z M 98 7 " clip-rule="nonzero"/></clipPath></defs><g clip-path="url(#a5e81e8b86)"><path fill="#f3f6fa" d="M 63.355469 64.554688 C 58.082031 71.464844 49.773438 75.9375 40.4375 75.9375 C 38.230469 75.9375 36.0625 75.699219 33.960938 75.21875 L 28.101562 85.203125 C 32.070312 86.488281 36.207031 87.144531 40.4375 87.144531 C 45.839844 87.144531 51.078125 86.085938 56.019531 84 C 60.785156 81.980469 65.0625 79.097656 68.734375 75.425781 C 71.914062 72.246094 74.503906 68.609375 76.449219 64.597656 C 76.753906 63.976562 77.039062 63.339844 77.308594 62.703125 C 78.578125 59.703125 79.464844 56.597656 79.964844 53.402344 L 46.796875 53.402344 L 40.222656 64.554688 Z M 63.355469 64.554688 " fill-opacity="1" fill-rule="nonzero"/></g><g clip-path="url(#68e2d5d90e)"><path fill="#f3f6fa" d="M 24.453125 10.429688 C 19.578125 12.558594 15.230469 15.59375 11.535156 19.449219 C 10.949219 20.058594 10.375 20.699219 9.832031 21.34375 L 9.832031 21.347656 C 9.742188 21.453125 9.648438 21.5625 9.558594 21.671875 L 24.515625 47.128906 L 16.363281 61.003906 L 1.8125 36.605469 C 0.894531 39.996094 0.417969 43.53125 0.417969 47.128906 C 0.417969 51.277344 1.042969 55.332031 2.28125 59.226562 C 2.652344 60.402344 3.082031 61.5625 3.566406 62.707031 C 5.082031 66.292969 7.089844 69.601562 9.558594 72.582031 C 10.21875 73.382812 10.910156 74.160156 11.632812 74.90625 L 11.648438 74.933594 L 12.113281 75.398438 L 12.140625 75.421875 C 13.953125 77.238281 15.917969 78.859375 18.011719 80.277344 C 18.015625 80.28125 18.015625 80.28125 18.019531 80.28125 L 37.496094 47.125 L 23.695312 23.644531 C 28.542969 20.167969 34.328125 18.289062 40.4375 18.289062 C 49.769531 18.289062 58.082031 22.785156 63.355469 29.640625 L 40.222656 29.640625 L 46.800781 40.851562 L 79.964844 40.851562 C 79.464844 37.65625 78.578125 34.550781 77.308594 31.550781 C 77.039062 30.910156 76.75 30.277344 76.449219 29.65625 C 74.503906 25.648438 71.914062 22.011719 68.734375 18.828125 C 65.0625 15.15625 60.785156 12.269531 56.019531 10.253906 C 51.078125 8.171875 45.835938 7.109375 40.4375 7.109375 C 34.882812 7.109375 29.507812 8.226562 24.453125 10.429688 Z M 24.453125 10.429688 " fill-opacity="1" fill-rule="nonzero"/></g><g clip-path="url(#84a2adb688)"><path stroke-linecap="round" transform="matrix(0, -0.747869, 0.747869, 0, 98.43585, 87.200049)" fill="none" stroke-linejoin="miter" d="M 2.497787 2.498883 L 104.66826 2.498883 " stroke="#f3f6fa" stroke-width="5" stroke-opacity="1" stroke-miterlimit="4"/></g><g fill="#f3f6fa" fill-opacity="1"><g transform="translate(120.856932, 36.479082)"><g><path d="M 11.453125 0 L 7.609375 0 L 7.609375 -19.609375 L 0.359375 -19.609375 L 0.359375 -23.0625 L 18.765625 -23.0625 L 18.765625 -19.609375 L 11.453125 -19.609375 Z M 11.453125 0 "/></g></g></g><g fill="#f3f6fa" fill-opacity="1"><g transform="translate(145.175251, 36.479082)"><g><path d="M 4.265625 0 L 0.265625 0 L 8.515625 -23.0625 L 12.75 -23.0625 L 21 0 L 17.015625 0 L 15.328125 -5.046875 L 5.984375 -5.046875 Z M 10.640625 -18.953125 L 7.09375 -8.40625 L 14.171875 -8.40625 Z M 10.640625 -18.953125 "/></g></g></g><g fill="#f3f6fa" fill-opacity="1"><g transform="translate(171.668363, 36.479082)"><g><path d="M 11.03125 0.390625 C 9.925781 0.390625 8.816406 0.253906 7.703125 -0.015625 C 6.597656 -0.285156 5.582031 -0.722656 4.65625 -1.328125 C 3.726562 -1.929688 2.953125 -2.726562 2.328125 -3.71875 C 1.703125 -4.707031 1.304688 -5.90625 1.140625 -7.3125 L 5.046875 -7.3125 C 5.304688 -6.1875 5.75 -5.300781 6.375 -4.65625 C 7 -4.007812 7.726562 -3.554688 8.5625 -3.296875 C 9.40625 -3.035156 10.25 -2.90625 11.09375 -2.90625 C 12.4375 -2.90625 13.53125 -3.191406 14.375 -3.765625 C 15.226562 -4.335938 15.65625 -5.207031 15.65625 -6.375 C 15.65625 -7.28125 15.375 -7.976562 14.8125 -8.46875 C 14.257812 -8.96875 13.539062 -9.351562 12.65625 -9.625 C 11.769531 -9.894531 10.816406 -10.140625 9.796875 -10.359375 C 8.867188 -10.566406 7.941406 -10.796875 7.015625 -11.046875 C 6.085938 -11.296875 5.238281 -11.644531 4.46875 -12.09375 C 3.707031 -12.550781 3.09375 -13.148438 2.625 -13.890625 C 2.164062 -14.640625 1.9375 -15.609375 1.9375 -16.796875 C 1.9375 -18.234375 2.28125 -19.4375 2.96875 -20.40625 C 3.664062 -21.382812 4.613281 -22.128906 5.8125 -22.640625 C 7.007812 -23.160156 8.363281 -23.421875 9.875 -23.421875 C 11.3125 -23.421875 12.660156 -23.171875 13.921875 -22.671875 C 15.191406 -22.179688 16.269531 -21.414062 17.15625 -20.375 C 18.050781 -19.34375 18.617188 -18.007812 18.859375 -16.375 L 15.015625 -16.375 C 14.691406 -17.707031 14.050781 -18.664062 13.09375 -19.25 C 12.144531 -19.832031 11.054688 -20.125 9.828125 -20.125 C 8.597656 -20.125 7.613281 -19.859375 6.875 -19.328125 C 6.132812 -18.804688 5.765625 -18.078125 5.765625 -17.140625 C 5.765625 -16.347656 6.019531 -15.726562 6.53125 -15.28125 C 7.050781 -14.84375 7.722656 -14.503906 8.546875 -14.265625 C 9.378906 -14.023438 10.273438 -13.789062 11.234375 -13.5625 C 12.203125 -13.363281 13.171875 -13.125 14.140625 -12.84375 C 15.109375 -12.5625 15.992188 -12.179688 16.796875 -11.703125 C 17.609375 -11.234375 18.257812 -10.585938 18.75 -9.765625 C 19.238281 -8.953125 19.484375 -7.90625 19.484375 -6.625 C 19.484375 -4.488281 18.75 -2.785156 17.28125 -1.515625 C 15.8125 -0.242188 13.726562 0.390625 11.03125 0.390625 Z M 11.03125 0.390625 "/></g></g></g><g fill="#f3f6fa" fill-opacity="1"><g transform="translate(197.708399, 36.479082)"><g><path d="M 5.984375 0 L 2.140625 0 L 2.140625 -23.0625 L 5.984375 -23.0625 L 5.984375 -12.71875 L 14.59375 -23.0625 L 19.34375 -23.0625 L 9.828125 -11.9375 L 19.703125 0 L 14.875 0 L 5.984375 -10.84375 Z M 5.984375 0 "/></g></g></g><g fill="#f3f6fa" fill-opacity="1"><g transform="translate(120.856932, 73.980095)"><g><path d="M 5.453125 0 L 1.953125 0 L 1.953125 -21.046875 L 7.890625 -21.046875 L 12.65625 -4.25 L 17.421875 -21.046875 L 23.359375 -21.046875 L 23.359375 0 L 19.859375 0 L 19.859375 -18.5625 L 14.375 0 L 10.953125 0 L 5.453125 -18.421875 Z M 5.453125 0 "/></g></g></g><g fill="#f3f6fa" fill-opacity="1"><g transform="translate(150.95981, 73.980095)"><g><path d="M 3.890625 0 L 0.25 0 L 7.78125 -21.046875 L 11.640625 -21.046875 L 19.171875 0 L 15.53125 0 L 13.984375 -4.609375 L 5.453125 -4.609375 Z M 9.703125 -17.296875 L 6.484375 -7.671875 L 12.9375 -7.671875 Z M 9.703125 -17.296875 "/></g></g></g><g fill="#f3f6fa" fill-opacity="1"><g transform="translate(175.136368, 73.980095)"><g><path d="M 5.453125 0 L 1.953125 0 L 1.953125 -21.046875 L 6.203125 -21.046875 L 15.109375 -4.828125 L 15.109375 -21.046875 L 18.59375 -21.046875 L 18.59375 0 L 14.375 0 L 5.453125 -16.21875 Z M 5.453125 0 "/></g></g></g><g fill="#f3f6fa" fill-opacity="1"><g transform="translate(200.470621, 73.980095)"><g><path d="M 3.890625 0 L 0.25 0 L 7.78125 -21.046875 L 11.640625 -21.046875 L 19.171875 0 L 15.53125 0 L 13.984375 -4.609375 L 5.453125 -4.609375 Z M 9.703125 -17.296875 L 6.484375 -7.671875 L 12.9375 -7.671875 Z M 9.703125 -17.296875 "/></g></g></g><g fill="#f3f6fa" fill-opacity="1"><g transform="translate(224.647179, 73.980095)"><g><path d="M 11.328125 0.359375 C 9.566406 0.359375 8.046875 0.0625 6.765625 -0.53125 C 5.492188 -1.132812 4.441406 -1.945312 3.609375 -2.96875 C 2.785156 -3.988281 2.171875 -5.144531 1.765625 -6.4375 C 1.359375 -7.738281 1.15625 -9.09375 1.15625 -10.5 C 1.15625 -11.914062 1.359375 -13.273438 1.765625 -14.578125 C 2.171875 -15.890625 2.785156 -17.054688 3.609375 -18.078125 C 4.441406 -19.097656 5.492188 -19.898438 6.765625 -20.484375 C 8.046875 -21.078125 9.5625 -21.375 11.3125 -21.375 C 13.914062 -21.375 16 -20.757812 17.5625 -19.53125 C 19.125 -18.3125 20.15625 -16.710938 20.65625 -14.734375 L 16.765625 -14.734375 C 16.398438 -15.828125 15.753906 -16.6875 14.828125 -17.3125 C 13.898438 -17.9375 12.71875 -18.25 11.28125 -18.25 C 9.8125 -18.25 8.59375 -17.898438 7.625 -17.203125 C 6.65625 -16.503906 5.9375 -15.570312 5.46875 -14.40625 C 5 -13.238281 4.765625 -11.957031 4.765625 -10.5625 C 4.765625 -9.113281 5.015625 -7.800781 5.515625 -6.625 C 6.023438 -5.445312 6.78125 -4.503906 7.78125 -3.796875 C 8.789062 -3.097656 10.039062 -2.75 11.53125 -2.75 C 13.332031 -2.75 14.757812 -3.238281 15.8125 -4.21875 C 16.875 -5.195312 17.410156 -6.578125 17.421875 -8.359375 L 12.65625 -8.359375 L 12.65625 -11.3125 L 20.90625 -11.3125 L 20.90625 0 L 17.703125 0 L 17.703125 -2.59375 C 16.972656 -1.53125 16.019531 -0.769531 14.84375 -0.3125 C 13.675781 0.132812 12.503906 0.359375 11.328125 0.359375 Z M 11.328125 0.359375 "/></g></g></g><g fill="#f3f6fa" fill-opacity="1"><g transform="translate(251.883375, 73.980095)"><g><path d="M 15.890625 0 L 1.953125 0 L 1.953125 -21.046875 L 15.890625 -21.046875 L 15.890625 -17.890625 L 5.453125 -17.890625 L 5.453125 -12.109375 L 14.734375 -12.109375 L 14.734375 -8.984375 L 5.453125 -8.984375 L 5.453125 -3.140625 L 15.890625 -3.140625 Z M 15.890625 0 "/></g></g></g><g fill="#f3f6fa" fill-opacity="1"><g transform="translate(273.716971, 73.980095)"><g><path d="M 5.453125 0 L 1.953125 0 L 1.953125 -21.046875 L 7.890625 -21.046875 L 12.65625 -4.25 L 17.421875 -21.046875 L 23.359375 -21.046875 L 23.359375 0 L 19.859375 0 L 19.859375 -18.5625 L 14.375 0 L 10.953125 0 L 5.453125 -18.421875 Z M 5.453125 0 "/></g></g></g><g fill="#f3f6fa" fill-opacity="1"><g transform="translate(303.819849, 73.980095)"><g><path d="M 15.890625 0 L 1.953125 0 L 1.953125 -21.046875 L 15.890625 -21.046875 L 15.890625 -17.890625 L 5.453125 -17.890625 L 5.453125 -12.109375 L 14.734375 -12.109375 L 14.734375 -8.984375 L 5.453125 -8.984375 L 5.453125 -3.140625 L 15.890625 -3.140625 Z M 15.890625 0 "/></g></g></g><g fill="#f3f6fa" fill-opacity="1"><g transform="translate(325.653444, 73.980095)"><g><path d="M 5.453125 0 L 1.953125 0 L 1.953125 -21.046875 L 6.203125 -21.046875 L 15.109375 -4.828125 L 15.109375 -21.046875 L 18.59375 -21.046875 L 18.59375 0 L 14.375 0 L 5.453125 -16.21875 Z M 5.453125 0 "/></g></g></g><g fill="#f3f6fa" fill-opacity="1"><g transform="translate(350.987698, 73.980095)"><g><path d="M 10.453125 0 L 6.953125 0 L 6.953125 -17.890625 L 0.328125 -17.890625 L 0.328125 -21.046875 L 17.125 -21.046875 L 17.125 -17.890625 L 10.453125 -17.890625 Z M 10.453125 0 "/></g></g></g></svg>